<svg width="36" height="52" viewBox="0 0 36 52" fill="none" xmlns="http://www.w3.org/2000/svg"><rect y="8" width="36.001" height="36" rx="4" fill="#CCCBF8"/><path d="M8 26c0 4.714 0 7.071 1.464 8.535C10.93 36 13.286 36 18 36s7.071 0 8.535-1.465C28 33.072 28 30.714 28 26v-1.5M19.5 16H18c-4.714 0-7.071 0-8.536 1.464-.973.974-1.3 2.343-1.409 4.536" stroke="#1F1E52" stroke-linecap="round"/><path d="m22.652 17.455.649-.649a2.753 2.753 0 0 1 3.893 3.894l-.65.65s-1.378-.082-2.594-1.299c-1.217-1.216-1.298-2.595-1.298-2.595l-5.965 5.964c-.404.404-.606.606-.78.83-.205.261-.38.546-.524.847-.121.255-.211.526-.392 1.068l-.58 1.735m0 0-.373 1.122a.742.742 0 0 0 .939.94l1.123-.374M14.412 27.9l1.688 1.688m10.445-8.24-2.983 2.982-2.982 2.983c-.404.404-.606.606-.83.78q-.394.308-.847.524c-.255.121-.526.211-1.068.392l-1.735.58" stroke="#1F1E52" stroke-linecap="round"/></svg>