<svg width="40" height="35" viewBox="0 0 40 35" fill="none" xmlns="http://www.w3.org/2000/svg">
<path d="M20 5.51778L18.9953 6.48522C19.1255 6.62027 19.2816 6.72768 19.4542 6.80105C19.6268 6.87442 19.8124 6.91223 20 6.91223C20.1876 6.91223 20.3732 6.87442 20.5458 6.80105C20.7184 6.72768 20.8745 6.62027 21.0047 6.48522L20 5.51778ZM10.6995 25.8341C10.4133 25.5987 10.0454 25.4867 9.67659 25.5226C9.3078 25.5585 8.96839 25.7395 8.73302 26.0257C8.49766 26.3119 8.38562 26.6798 8.42156 27.0486C8.4575 27.4174 8.63846 27.7568 8.92465 27.9922L10.6995 25.8341ZM2.03163 20.2359C2.11958 20.3967 2.23834 20.5385 2.38112 20.6534C2.5239 20.7683 2.68791 20.8539 2.86378 20.9054C3.03965 20.9569 3.22394 20.9732 3.40612 20.9535C3.58831 20.9337 3.76482 20.8783 3.92558 20.7903C4.08634 20.7024 4.22821 20.5836 4.34307 20.4408C4.45794 20.2981 4.54356 20.1341 4.59504 19.9582C4.64652 19.7823 4.66286 19.598 4.64312 19.4158C4.62338 19.2337 4.56796 19.0571 4.48 18.8964L2.03163 20.2359ZM2.7907 12.2843C2.7907 8.28429 5.05116 4.92801 8.13767 3.51592C11.1367 2.14476 15.1665 2.50755 18.9953 6.48522L21.0047 4.5522C16.4651 -0.167802 11.1888 -0.947337 6.97674 0.978244C2.85767 2.8629 0 7.23871 0 12.2843H2.7907ZM13.4828 31.5643C14.4372 32.3159 15.4605 33.1159 16.4967 33.7224C17.533 34.3271 18.7163 34.8201 20 34.8201V32.0294C19.4233 32.0294 18.746 31.8061 17.9051 31.3131C17.0623 30.822 16.1898 30.1448 15.2112 29.3727L13.4828 31.5643ZM26.5172 31.5643C29.1702 29.4713 32.5637 27.075 35.2242 24.0778C37.9349 21.0266 40 17.2443 40 12.2843H37.2093C37.2093 16.3736 35.5349 19.5234 33.1386 22.2248C30.6921 24.9782 27.6093 27.1494 24.7888 29.3727L26.5172 31.5643ZM40 12.2843C40 7.23871 37.1442 2.8629 33.0233 0.978244C28.8112 -0.947337 23.5386 -0.167802 18.9953 4.55034L21.0047 6.48522C24.8335 2.50941 28.8633 2.14476 31.8623 3.51592C34.9488 4.92801 37.2093 8.28243 37.2093 12.2843H40ZM24.7888 29.3727C23.8102 30.1448 22.9377 30.822 22.0949 31.3131C21.254 31.8043 20.5767 32.0294 20 32.0294V34.8201C21.2837 34.8201 22.467 34.3271 23.5033 33.7224C24.5414 33.1159 25.5628 32.3159 26.5172 31.5643L24.7888 29.3727ZM15.2112 29.3727C13.7302 28.2061 12.2251 27.0899 10.6995 25.8341L8.92465 27.9922C10.4688 29.2629 12.1023 30.4759 13.4828 31.5643L15.2112 29.3727ZM4.48 18.8982C3.35927 16.8748 2.77755 14.5973 2.7907 12.2843H0C0 15.3317 0.781395 17.9494 2.03163 20.2359L4.48 18.8982Z" fill="#7849FD"/>
</svg>
