<svg width="97" height="114" viewBox="0 0 97 114" fill="none" xmlns="http://www.w3.org/2000/svg">
<circle cx="25" cy="20" r="20" fill="#B0CCDE"/>
<circle cx="81" cy="30" r="10" fill="#CCCBF8"/>
<path d="M45 54.8V65.6M81 44.7344V50.21C81 64.25 81 71.2736 76.7808 75.6368C72.5652 80 65.7756 80 52.2 80H37.8C24.2244 80 17.4348 80 13.2192 75.6368C9 71.2736 9 64.2536 9 50.21V44.7344C9 36.494 9 32.3756 10.872 28.9628C12.7368 25.5464 16.1532 23.4296 22.9824 19.1888L30.1824 14.7212C37.4004 10.2392 41.0112 8 45 8C48.9888 8 52.596 10.2392 59.8176 14.7212L67.0176 19.1888C73.8468 23.4296 77.2632 25.5464 79.1316 28.9628" stroke="#5956E9" stroke-width="3" stroke-linecap="round"/>
<path d="M1.6 94.352H3.472V104.208H9.216V106H1.6V94.352ZM10.6925 100.192C10.6925 99.3813 10.8472 98.6187 11.1565 97.904C11.4658 97.1893 11.8925 96.5547 12.4365 96C12.9805 95.4453 13.6098 95.0133 14.3245 94.704C15.0498 94.384 15.8232 94.224 16.6445 94.224C17.4552 94.224 18.2178 94.384 18.9325 94.704C19.6578 95.0133 20.2925 95.4453 20.8365 96C21.3912 96.5547 21.8232 97.1893 22.1325 97.904C22.4525 98.6187 22.6125 99.3813 22.6125 100.192C22.6125 101.013 22.4525 101.781 22.1325 102.496C21.8232 103.211 21.3912 103.845 20.8365 104.4C20.2925 104.944 19.6578 105.371 18.9325 105.68C18.2178 105.979 17.4552 106.128 16.6445 106.128C15.8125 106.128 15.0392 105.979 14.3245 105.68C13.6098 105.371 12.9805 104.949 12.4365 104.416C11.8925 103.872 11.4658 103.243 11.1565 102.528C10.8472 101.803 10.6925 101.024 10.6925 100.192ZM12.6125 100.192C12.6125 100.768 12.7138 101.307 12.9165 101.808C13.1298 102.309 13.4232 102.752 13.7965 103.136C14.1698 103.509 14.6018 103.803 15.0925 104.016C15.5832 104.229 16.1165 104.336 16.6925 104.336C17.2472 104.336 17.7645 104.229 18.2445 104.016C18.7352 103.803 19.1618 103.509 19.5245 103.136C19.8872 102.752 20.1698 102.309 20.3725 101.808C20.5858 101.307 20.6925 100.768 20.6925 100.192C20.6925 99.6053 20.5858 99.0613 20.3725 98.56C20.1592 98.0587 19.8712 97.616 19.5085 97.232C19.1458 96.848 18.7192 96.5493 18.2285 96.336C17.7378 96.1227 17.2098 96.016 16.6445 96.016C16.0792 96.016 15.5512 96.1227 15.0605 96.336C14.5698 96.5493 14.1378 96.848 13.7645 97.232C13.4018 97.616 13.1192 98.064 12.9165 98.576C12.7138 99.0773 12.6125 99.616 12.6125 100.192ZM33.74 105.088C33.58 105.205 33.3293 105.349 32.988 105.52C32.6467 105.691 32.2413 105.84 31.772 105.968C31.3133 106.085 30.8013 106.139 30.236 106.128C29.3293 106.117 28.5133 105.957 27.788 105.648C27.0627 105.328 26.4493 104.901 25.948 104.368C25.4467 103.824 25.0573 103.205 24.78 102.512C24.5133 101.808 24.38 101.061 24.38 100.272C24.38 99.3867 24.5187 98.576 24.796 97.84C25.0733 97.104 25.468 96.4693 25.98 95.936C26.492 95.392 27.1 94.9707 27.804 94.672C28.508 94.3733 29.276 94.224 30.108 94.224C30.844 94.224 31.5 94.3253 32.076 94.528C32.6627 94.72 33.1533 94.9387 33.548 95.184L32.812 96.944C32.5133 96.7307 32.14 96.5227 31.692 96.32C31.244 96.1173 30.7373 96.016 30.172 96.016C29.66 96.016 29.1693 96.1227 28.7 96.336C28.2307 96.5387 27.82 96.832 27.468 97.216C27.116 97.5893 26.8333 98.0267 26.62 98.528C26.4173 99.0293 26.316 99.5733 26.316 100.16C26.316 100.768 26.4067 101.328 26.588 101.84C26.78 102.341 27.0467 102.779 27.388 103.152C27.74 103.525 28.156 103.819 28.636 104.032C29.1267 104.235 29.6707 104.336 30.268 104.336C30.876 104.336 31.404 104.245 31.852 104.064C32.3107 103.872 32.6787 103.659 32.956 103.424L33.74 105.088ZM35.009 106L40.161 93.872H40.273L45.425 106H43.281L39.649 96.8L40.993 95.888L36.849 106H35.009ZM38.241 101.68H42.225L42.865 103.264H37.681L38.241 101.68ZM53.5245 96.72C53.1085 96.5067 52.6658 96.3253 52.1965 96.176C51.7272 96.016 51.2792 95.936 50.8525 95.936C50.2765 95.936 49.8178 96.064 49.4765 96.32C49.1458 96.576 48.9805 96.928 48.9805 97.376C48.9805 97.696 49.0978 97.9787 49.3325 98.224C49.5672 98.4587 49.8658 98.6667 50.2285 98.848C50.5912 99.0187 50.9752 99.184 51.3805 99.344C51.7325 99.472 52.0792 99.6267 52.4205 99.808C52.7725 99.9787 53.0872 100.192 53.3645 100.448C53.6418 100.704 53.8605 101.024 54.0205 101.408C54.1912 101.781 54.2765 102.245 54.2765 102.8C54.2765 103.408 54.1218 103.968 53.8125 104.48C53.5032 104.981 53.0605 105.381 52.4845 105.68C51.9085 105.979 51.2045 106.128 50.3725 106.128C49.8925 106.128 49.4178 106.075 48.9485 105.968C48.4898 105.861 48.0525 105.717 47.6365 105.536C47.2205 105.344 46.8365 105.131 46.4845 104.896L47.3165 103.44C47.5725 103.632 47.8658 103.808 48.1965 103.968C48.5272 104.128 48.8685 104.256 49.2205 104.352C49.5725 104.437 49.9032 104.48 50.2125 104.48C50.5432 104.48 50.8685 104.427 51.1885 104.32C51.5192 104.213 51.7912 104.037 52.0045 103.792C52.2285 103.547 52.3405 103.221 52.3405 102.816C52.3405 102.485 52.2445 102.203 52.0525 101.968C51.8605 101.733 51.6098 101.531 51.3005 101.36C51.0018 101.179 50.6712 101.019 50.3085 100.88C49.9458 100.741 49.5725 100.587 49.1885 100.416C48.8152 100.245 48.4685 100.037 48.1485 99.792C47.8285 99.536 47.5672 99.2267 47.3645 98.864C47.1618 98.5013 47.0605 98.0533 47.0605 97.52C47.0605 96.88 47.2098 96.3253 47.5085 95.856C47.8072 95.3867 48.2178 95.0133 48.7405 94.736C49.2738 94.4587 49.8872 94.3093 50.5805 94.288C51.4018 94.288 52.1005 94.3893 52.6765 94.592C53.2632 94.784 53.7805 95.0187 54.2285 95.296L53.5245 96.72ZM55.717 94.416H57.893L60.773 102.672L60.469 102.544L62.709 96.8L63.573 99.328L60.373 106.544L55.717 94.416ZM61.429 94.416H63.269L66.469 102.496L66.101 102.432L68.757 94.416H70.757L66.213 106.512L61.429 94.416ZM72.9438 94.352H74.8158V106H72.9438V94.352ZM81.3179 94.352C82.2032 94.352 82.9605 94.5013 83.5899 94.8C84.2192 95.0987 84.6992 95.5253 85.0299 96.08C85.3712 96.6347 85.5419 97.3067 85.5419 98.096C85.5419 98.5547 85.4672 99.0133 85.3179 99.472C85.1792 99.9307 84.9552 100.347 84.6459 100.72C84.3472 101.093 83.9419 101.397 83.4299 101.632C82.9285 101.856 82.3099 101.968 81.5739 101.968H79.8939V106H78.0219V94.352H81.3179ZM81.5739 100.16C81.9792 100.16 82.3205 100.091 82.5979 99.952C82.8752 99.8133 83.0885 99.6373 83.2379 99.424C83.3979 99.2107 83.5099 98.992 83.5739 98.768C83.6485 98.5333 83.6859 98.3253 83.6859 98.144C83.6859 97.952 83.6539 97.744 83.5899 97.52C83.5259 97.2853 83.4192 97.0667 83.2699 96.864C83.1205 96.6507 82.9125 96.48 82.6459 96.352C82.3792 96.2133 82.0379 96.144 81.6219 96.144H79.8939V100.16H81.5739ZM87.8031 94.352H95.5311V96.144H89.6751V99.248H94.8911V101.056H89.6751V104.208H95.7551V106H87.8031V94.352Z" fill="#5956E9"/>
</svg>
