 <svg width="26" height="26" viewBox="0 0 26 26" fill="none" xmlns="http://www.w3.org/2000/svg">
            <path d="M12.0927 17.4745V20.7396M22.9764 14.4314V16.0868C22.9764 20.3315 22.9764 22.4549 21.7009 23.774C20.4264 25.0931 18.3737 25.0931 14.2694 25.0931H9.91596C5.81171 25.0931 3.75904 25.0931 2.48456 23.774C1.20898 22.4549 1.20898 20.3326 1.20898 16.0868V14.4314C1.20898 11.9401 1.20898 10.6951 1.77494 9.66327C2.33871 8.63041 3.37158 7.99045 5.43622 6.70834L7.61297 5.35767C9.79515 4.00265 10.8868 3.32568 12.0927 3.32568C13.2986 3.32568 14.3892 4.00265 16.5724 5.35767L18.7492 6.70834C20.8138 7.99045 21.8467 8.63041 22.4116 9.66327" stroke="#FFFFFF" strokeLinecap="round" />
          </svg>