<svg width="40" height="40" viewBox="0 0 40 40" fill="none" xmlns="http://www.w3.org/2000/svg"><circle cx="20" cy="20" r="20" fill="#EEEEFD"/><circle cx="14.046" cy="13.046" fill="#B0CCDE" r="6.047"/><circle cx="29.977" cy="16.069" fill="#CCCBF8" r="3.023"/><path d="M20.093 23.567v3.265m10.883-6.308v1.656c0 4.244 0 6.368-1.275 7.687s-3.327 1.319-7.432 1.319h-4.353c-4.104 0-6.157 0-7.431-1.32-1.276-1.318-1.276-3.44-1.276-7.686v-1.656c0-2.491 0-3.736.566-4.768.564-1.033 1.597-1.673 3.661-2.955l2.177-1.35c2.182-1.356 3.274-2.033 4.48-2.033s2.296.677 4.48 2.032l2.176 1.351c2.065 1.282 3.098 1.922 3.663 2.955" stroke="#5956E9" stroke-linecap="round"/></svg>