<svg width="41" height="40" viewBox="0 0 41 40" fill="none" xmlns="http://www.w3.org/2000/svg">
<circle cx="20.5" cy="20" r="20" fill="#EEEEFD"/>
<path d="M23.5 26V26.75C23.5 27.5456 23.1839 28.3087 22.6213 28.8713C22.0587 29.4339 21.2956 29.75 20.5 29.75C19.7043 29.75 18.9413 29.4339 18.3787 28.8713C17.8161 28.3087 17.5 27.5456 17.5 26.75V26M28.5475 24.4733C27.3437 23 26.4939 22.25 26.4939 18.1883C26.4939 14.4688 24.5945 13.1436 23.0312 12.5C22.8236 12.4147 22.6281 12.2187 22.5648 12.0055C22.2906 11.0722 21.5219 10.25 20.5 10.25C19.4781 10.25 18.7089 11.0727 18.4375 12.0064C18.3742 12.222 18.1787 12.4147 17.9711 12.5C16.4059 13.1445 14.5084 14.465 14.5084 18.1883C14.5061 22.25 13.6562 23 12.4525 24.4733C11.9537 25.0836 12.3906 26 13.263 26H27.7417C28.6094 26 29.0434 25.0808 28.5475 24.4733Z" stroke="#5956E9" stroke-linecap="round" stroke-linejoin="round"/>
<circle cx="25" cy="13.5" r="1.5" fill="#E93535"/>
</svg>
