<svg width="74" height="74" viewBox="0 0 74 74" fill="none" xmlns="http://www.w3.org/2000/svg"><path d="M37 73c19.882 0 36-16.118 36-36S56.882 1 37 1 1 17.118 1 37s16.118 36 36 36" stroke="#344054" stroke-width=".96" stroke-linecap="round" stroke-linejoin="round"/><path d="M37 41.65v4.65m15.5-8.984v2.358c0 6.045 0 9.069-1.817 10.947C48.868 52.5 45.945 52.5 40.1 52.5h-6.2c-5.845 0-8.768 0-10.583-1.879-1.817-1.878-1.817-4.9-1.817-10.947v-2.358c0-3.548 0-5.321.806-6.79.803-1.471 2.274-2.383 5.214-4.209l3.1-1.923c3.108-1.93 4.663-2.894 6.38-2.894s3.27.964 6.38 2.894l3.1 1.923c2.94 1.826 4.411 2.738 5.216 4.209" stroke="#5956E9" stroke-linecap="round"/></svg>