<svg width="40" height="40" viewBox="0 0 40 40" fill="none" xmlns="http://www.w3.org/2000/svg"><circle cx="20" cy="20" r="20" fill="#EEEEFD"/><circle cx="13.046" cy="14.046" fill="#B0CCDE" r="6.047"/><circle cx="29.974" cy="16.073" fill="#CCCBF8" r="3.023"/><path d="M19.885 22.367c1.804 0 3.266-1.393 3.266-3.11 0-1.718-1.462-3.11-3.266-3.11-1.803 0-3.265 1.392-3.265 3.11s1.462 3.11 3.265 3.11Z" stroke="#5956E9"/><path d="M26.384 30.66c-.174-2.998-1.138-5.183-6.498-5.183s-6.325 2.185-6.499 5.183" stroke="#5956E9" stroke-linecap="round"/><path d="M14.443 13.387A11.25 11.25 0 0 1 19.885 12c6.012 0 10.885 4.641 10.885 10.367 0 5.725-4.873 10.366-10.885 10.366S9 28.093 9 22.367c0-1.888.53-3.66 1.456-5.184" stroke="#5956E9" stroke-linecap="round"/></svg>